<?xml version="1.0" standalone="no"?>
<!DOCTYPE svg PUBLIC "-//W3C//DTD SVG 20010904//EN"
 "http://www.w3.org/TR/2001/REC-SVG-20010904/DTD/svg10.dtd">
<svg version="1.0" xmlns="http://www.w3.org/2000/svg"
 width="2000.000000pt" height="1414.000000pt" viewBox="0 0 2000.000000 1414.000000"
 preserveAspectRatio="xMidYMid meet">

<g transform="translate(0.000000,1414.000000) scale(0.100000,-0.100000)"
fill="#000000" stroke="none">
<path d="M9950 11274 c-371 -45 -748 -217 -962 -439 -60 -63 -32 -60 40 3 203
179 424 296 680 361 171 43 289 55 466 48 318 -13 582 -98 841 -272 60 -40
141 -101 178 -136 45 -41 72 -58 78 -52 18 18 -166 172 -306 255 -164 98 -353
170 -545 209 -92 19 -386 33 -470 23z"/>
<path d="M7774 9125 c-109 -125 -196 -293 -247 -474 -18 -65 -21 -103 -21
-266 0 -175 2 -198 27 -288 30 -111 104 -274 163 -358 52 -74 130 -160 137
-152 4 3 -16 30 -42 59 -199 218 -304 542 -272 844 25 240 116 447 283 642 17
21 29 40 26 44 -3 3 -28 -20 -54 -51z"/>
<path d="M12405 8927 c14 -32 37 -102 52 -155 25 -89 27 -112 27 -282 0 -158
-4 -196 -22 -262 -37 -136 -84 -241 -168 -374 l-18 -29 27 24 c34 31 119 195
151 293 41 128 60 266 53 397 -10 172 -59 366 -108 423 -16 19 -15 13 6 -35z"/>
<path d="M11024 5939 c-11 -18 -184 -128 -266 -170 -271 -136 -581 -197 -871
-171 -291 26 -551 118 -786 278 l-96 65 55 -56 c60 -61 137 -109 276 -173 313
-143 683 -186 1014 -116 185 39 431 138 553 223 43 30 147 131 135 131 -4 0
-10 -5 -14 -11z"/>
</g>
</svg>
